<svg width="42" height="42" viewBox="0 0 42 42" fill="none" xmlns="http://www.w3.org/2000/svg">
<g clip-path="url(#clip0_6_521)">
<path d="M21.0003 41.9997C32.5982 41.9997 42.0001 32.5978 42.0001 20.9999C42.0001 9.40196 32.5982 0 21.0003 0C9.40235 0 0.000396729 9.40196 0.000396729 20.9999C0.000396729 32.5978 9.40235 41.9997 21.0003 41.9997Z" fill="white"/>
<path d="M13.1228 21.7744C13.1228 25.2 11.2432 25.2885 11.3769 27.5569C11.5258 30.0689 13.4892 30.0747 13.4892 31.8017C13.4892 33.5282 11.6836 35.4641 13.2832 37.3234C20.3166 37.3234 21.003 37.3234 21.003 37.3234V16.3752L13.1228 21.7744Z" fill="#183342"/>
<path d="M28.8769 21.661C28.8769 25.0866 30.7568 25.1751 30.6228 27.4434C30.4742 29.9555 28.5108 29.9613 28.5108 31.6883C28.5108 33.4147 30.3161 35.3506 28.7167 37.2099C21.683 37.2099 20.9966 37.2099 20.9966 37.2099V16.262L28.8769 21.661Z" fill="#183342"/>
<path d="M21.0001 26.8493C25.7483 26.8493 29.5975 22.9751 29.5975 18.1959C29.5975 13.4168 25.7483 9.54254 21.0001 9.54254C16.2519 9.54254 12.4027 13.4168 12.4027 18.1959C12.4027 22.9751 16.2519 26.8493 21.0001 26.8493Z" fill="#183342"/>
<path d="M31.0571 33.9254C29.7034 31.3628 21.0001 29.7548 21.0001 29.7548C21.0001 29.7548 12.2969 31.3628 10.9432 33.9254C9.94262 37.4815 9.10565 42 9.10565 42H21.0001H32.8946C32.8946 42 32.3292 37.1552 31.0571 33.9254Z" fill="#F1C9A5"/>
<path d="M21.0001 29.7548C21.0001 29.7548 29.7034 31.3628 31.0571 33.9254C32.3295 37.1552 32.8946 42 32.8946 42H21.0001V29.7548Z" fill="#E4B692"/>
<path d="M23.3694 24.545H18.6308V32.4754H23.3694V24.545Z" fill="#F1C9A5"/>
<path d="M23.3694 24.545H21.0001V32.4754H23.3694V24.545Z" fill="#E4B692"/>
<path opacity="0.1" d="M18.6308 28.2198C19.057 29.4432 20.7767 30.1444 22.0399 30.1444C22.4968 30.1444 22.9415 30.0678 23.3694 29.9277V24.545H18.6308V28.2198Z" fill="#DDAC8C"/>
<path d="M27.0924 19.5409C27.0924 14.5875 24.3648 11.7709 21.0001 11.7709C17.6354 11.7709 14.9078 14.5875 14.9078 19.5409C14.9078 24.4942 17.6354 28.5102 21.0001 28.5102C24.3645 28.5102 27.0924 24.4945 27.0924 19.5409Z" fill="#F1C9A5"/>
<path d="M26.1649 22.9752C25.0605 22.8522 24.3149 21.5876 24.502 20.1518C24.6868 18.7149 25.7327 17.6482 26.8377 17.7703C27.9416 17.8928 28.686 19.1568 28.4997 20.5937C28.3144 22.0306 27.2694 23.0964 26.1649 22.9752Z" fill="#E4B692"/>
<path d="M13.5437 20.5937C13.3572 19.1568 14.1019 17.8925 15.2052 17.7703C16.3105 17.6482 17.3566 18.7149 17.542 20.1518C17.7283 21.5876 16.9821 22.8525 15.8785 22.9752C14.7738 23.0964 13.7288 22.0306 13.5437 20.5937Z" fill="#F1C9A5"/>
<path d="M27.0924 19.5409C27.0924 14.5875 24.3648 11.7709 21.0001 11.7709V28.5102C24.3645 28.5102 27.0924 24.4945 27.0924 19.5409Z" fill="#E4B692"/>
<path d="M27.5952 18.9818C27.5952 18.967 27.5961 18.9528 27.5961 18.9383C27.5961 15.0958 24.9947 11.041 21.3535 11.041C17.7123 11.041 14.4109 15.0955 14.4109 18.938C14.4109 18.9528 14.4118 18.967 14.4118 18.9815H27.5952V18.9818Z" fill="#183342"/>
<path d="M32.8946 42C32.8946 42 32.3295 37.1551 31.0571 33.9254C30.3147 32.5198 27.3628 31.4026 24.847 30.6793L20.9911 33.7057L16.9804 30.7292C14.5043 31.4536 11.6685 32.5523 10.9432 33.9256C9.94262 37.4818 9.10565 42.0003 9.10565 42.0003H21.0001H32.8946V42Z" fill="#FA582A"/>
</g>
<defs>
<clipPath id="clip0_6_521">
<rect width="42" height="42" fill="white"/>
</clipPath>
</defs>
</svg>
