<svg width="36" height="50" viewBox="0 0 36 50" fill="none" xmlns="http://www.w3.org/2000/svg">
<path d="M29.3896 4.35325C25.7222 1.07003 20.9891 -0.436591 16.0501 0.110058C8.1995 0.980862 1.87888 7.31398 1.02141 15.1704C0.438925 20.5094 2.31553 25.6917 6.1704 29.3882C8.65698 31.7723 10.0836 35.0539 10.0836 38.3904V40.0012V41.6678V43.3344V46.6677H12.1669L14.6668 50.0009H20.4999L22.9998 46.6677H25.0831V43.3344V41.6678V40.0012V39.1679C25.0831 35.653 26.6347 32.2598 29.3396 29.8574C32.9895 26.6167 35.0828 21.961 35.0828 17.0853C35.0828 12.2322 33.0078 7.59064 29.3896 4.35325ZM19.6666 48.3334H15.5001L14.2501 46.6668H20.9166L19.6666 48.3334ZM23.4165 45.0002H11.7502V43.3336H23.4165V45.0002ZM23.4165 41.667H11.7502V40.0004H15.0834H20.0833H23.4165V41.667ZM16.75 32.5006H18.4167V38.3338H16.75V32.5006ZM28.233 28.6099C25.3856 31.1382 23.6673 34.6447 23.4415 38.3338H20.0824V31.6673C20.0824 25.515 21.3907 23.3343 25.0823 23.3343C25.5423 23.3343 25.9156 22.9618 25.9156 22.501C25.9156 22.0402 25.5423 21.6677 25.0823 21.6677C18.9408 21.6677 18.4583 27.3933 18.42 30.834H16.7442C16.7059 27.3933 16.2234 21.6677 10.0819 21.6677C9.62195 21.6677 9.24863 22.0402 9.24863 22.501C9.24863 22.9618 9.62195 23.3343 10.0819 23.3343C13.7735 23.3343 15.0818 25.515 15.0818 31.6673V38.3338H11.7485C11.7327 34.5656 10.1211 30.869 7.32203 28.185C3.84381 24.8492 2.15053 20.1719 2.67635 15.3512C3.45132 8.26479 9.1528 2.55248 16.2342 1.76667C20.6933 1.27335 24.9681 2.63164 28.278 5.59404C31.5429 8.51728 33.4162 12.7055 33.4162 17.0845C33.4162 21.4852 31.5271 25.6859 28.233 28.6099Z" fill="#EAEAEA"/>
<path d="M28.023 17.6261C27.633 17.3845 27.1189 17.5028 26.8756 17.8936C26.3648 18.7144 25.7289 19.1669 25.0831 19.1669C24.4373 19.1669 23.8015 18.7144 23.2907 17.8936C23.2865 17.8869 23.279 17.8836 23.2749 17.8761C23.244 17.8294 23.199 17.7936 23.1582 17.7528C23.119 17.7144 23.0857 17.6719 23.0407 17.6419C23.0332 17.6369 23.0299 17.6294 23.0224 17.6253C22.9857 17.6028 22.944 17.5986 22.9057 17.582C22.8507 17.5586 22.799 17.532 22.7407 17.5211C22.6882 17.5111 22.6365 17.5153 22.584 17.5153C22.5299 17.5153 22.4774 17.5103 22.4232 17.5211C22.3641 17.5328 22.3116 17.5595 22.2557 17.5836C22.2182 17.6003 22.1782 17.6036 22.1424 17.6261C22.1357 17.6303 22.1324 17.6378 22.1257 17.6419C22.0791 17.6728 22.0432 17.7169 22.0032 17.7569C21.9641 17.7961 21.9207 17.8303 21.8916 17.8761C21.8874 17.8828 21.8799 17.8861 21.8749 17.8936C21.3641 18.7144 20.7283 19.1669 20.0825 19.1669C19.4367 19.1669 18.8008 18.7144 18.29 17.8936C18.2859 17.8869 18.2784 17.8836 18.2742 17.8761C18.2434 17.8294 18.1984 17.7936 18.1575 17.7528C18.1184 17.7144 18.085 17.6719 18.04 17.6419C18.0325 17.6369 18.0292 17.6294 18.0217 17.6253C17.985 17.6028 17.9434 17.5986 17.905 17.582C17.85 17.5586 17.7984 17.532 17.74 17.5211C17.6875 17.5111 17.6359 17.5153 17.5834 17.5153C17.5292 17.5153 17.4767 17.5103 17.4226 17.5211C17.3634 17.5328 17.3109 17.5595 17.2551 17.5836C17.2176 17.6003 17.1776 17.6036 17.1417 17.6261C17.1351 17.6303 17.1317 17.6378 17.1251 17.6419C17.0784 17.6728 17.0426 17.7169 17.0026 17.7569C16.9634 17.7961 16.9201 17.8303 16.8909 17.8761C16.8867 17.8828 16.8792 17.8861 16.8742 17.8936C16.3634 18.7144 15.7276 19.1669 15.0818 19.1669C14.436 19.1669 13.8002 18.7144 13.2894 17.8936C13.2852 17.8869 13.2777 17.8836 13.2735 17.8761C13.2427 17.8294 13.1977 17.7936 13.1569 17.7528C13.1177 17.7144 13.0844 17.6719 13.0394 17.6419C13.0319 17.6369 13.0285 17.6294 13.021 17.6253C12.9844 17.6028 12.9427 17.5986 12.9044 17.582C12.8494 17.5586 12.7977 17.532 12.7394 17.5211C12.6869 17.5111 12.6352 17.5153 12.5827 17.5153C12.5286 17.5153 12.4761 17.5103 12.4219 17.5211C12.3627 17.5328 12.3102 17.5595 12.2544 17.5836C12.2169 17.6003 12.1769 17.6036 12.1411 17.6261C12.1344 17.6303 12.1311 17.6378 12.1244 17.6419C12.0777 17.6728 12.0419 17.7169 12.0019 17.7569C11.9627 17.7961 11.9194 17.8303 11.8902 17.8761C11.8861 17.8828 11.8786 17.8861 11.8736 17.8936C11.3628 18.7144 10.7269 19.1669 10.0811 19.1669C9.43532 19.1669 8.79951 18.7144 8.28869 17.8936C8.04537 17.5028 7.53122 17.3836 7.14123 17.6261C6.75041 17.8694 6.63041 18.3828 6.87374 18.7744C7.69955 20.1027 8.83867 20.8343 10.0811 20.8343C10.9994 20.8343 11.8602 20.4327 12.581 19.6877C13.3019 20.4327 14.1627 20.8343 15.081 20.8343C15.9993 20.8343 16.8601 20.4327 17.5809 19.6877C18.3017 20.4327 19.1625 20.8343 20.0808 20.8343C20.9991 20.8343 21.8599 20.4327 22.5807 19.6877C23.3015 20.4327 24.1623 20.8343 25.0806 20.8343C26.3231 20.8343 27.4622 20.1027 28.288 18.7744C28.533 18.3836 28.4139 17.8694 28.023 17.6261Z" fill="#EAEAEA"/>
</svg>
