<svg width="36" height="50" viewBox="0 0 36 50" fill="none" xmlns="http://www.w3.org/2000/svg">
<path d="M30.3999 0H4.8C2.16 0 0 2.25 0 5V45C0 47.75 2.16 50 4.8 50H30.4C33.04 50 35.2 47.75 35.2 45V5C35.1999 2.25 33.0399 0 30.3999 0ZM33.6 45C33.6 46.8333 32.16 48.3333 30.4 48.3333H4.8C3.04003 48.3333 1.60003 46.8333 1.60003 45V5C1.60003 3.1667 3.04003 1.6667 4.8 1.6667H30.4C32.16 1.6667 33.6 3.1667 33.6 5V45Z" fill="#EAEAEA"/>
<path d="M29.1999 3.33325H5.99998C4.47992 3.33325 3.19995 4.66665 3.19995 6.24995V43.7499C3.19995 45.3332 4.47992 46.6666 5.99998 46.6666H29.2C30.72 46.6666 32 45.3333 32 43.7499V6.24995C32 4.66665 30.72 3.33325 29.1999 3.33325ZM30.3999 43.7499C30.3999 44.4166 29.8399 44.9999 29.1999 44.9999H5.99998C5.35995 44.9999 4.79998 44.4166 4.79998 43.7499V6.24995C4.79998 5.58325 5.35995 4.99995 5.99998 4.99995H29.2C29.84 4.99995 30.4 5.58325 30.4 6.24995V43.7499H30.3999Z" fill="#EAEAEA"/>
<path d="M15.1999 13.3333C14.3199 13.3333 13.5999 14.0833 13.5999 15C13.5999 15.9167 14.3199 16.6667 15.1999 16.6667C16.08 16.6667 16.8 15.9167 16.8 15C16.8 14.0833 16.08 13.3333 15.1999 13.3333Z" fill="#EAEAEA"/>
<path d="M20 13.3333C19.12 13.3333 18.4 14.0833 18.4 15C18.4 15.9167 19.12 16.6667 20 16.6667C20.88 16.6667 21.6 15.9167 21.6 15C21.6 14.0833 20.88 13.3333 20 13.3333Z" fill="#EAEAEA"/>
<path d="M15.1999 33.3333C14.3199 33.3333 13.5999 34.0833 13.5999 35C13.5999 35.9167 14.3199 36.6667 15.1999 36.6667C16.08 36.6667 16.8 35.9167 16.8 35C16.8 34.0833 16.08 33.3333 15.1999 33.3333Z" fill="#EAEAEA"/>
<path d="M20 33.3333C19.12 33.3333 18.4 34.0833 18.4 35C18.4 35.9167 19.12 36.6667 20 36.6667C20.88 36.6667 21.6 35.9167 21.6 35C21.6 34.0833 20.88 33.3333 20 33.3333Z" fill="#EAEAEA"/>
<path d="M19.3599 6.83334C19.1999 6.75004 18.8799 6.83334 18.7199 7.00004C18.4799 7.16674 18.3999 7.41674 18.3999 7.66674V9.16673H16.7999V7.66674C16.7999 7.41674 16.7199 7.16674 16.4799 7.16674C16.3199 7.00004 16.0799 6.91674 15.8399 7.00004C12.1599 7.83334 9.59991 11.1667 9.59991 15.0833C9.59991 19 12.1599 22.3333 15.8399 23.1666C16.0799 23.2499 16.3199 23.1666 16.4799 22.9999C16.7199 22.8332 16.7999 22.5832 16.7999 22.3332V20.8332H18.3999V22.3332C18.3999 22.5832 18.3999 22.9999 19.3599 22.9999C23.0399 22.1666 25.5999 18.8332 25.5999 14.9166C25.5999 11 23.04 7.66674 19.3599 6.83334ZM20 21.1667V20C20 19.5 19.68 19.1667 19.2 19.1667H16C15.52 19.1667 15.2001 19.5 15.2001 20V21.1667C12.8001 20.1667 11.2 17.75 11.2 15C11.2 12.25 12.8001 9.83334 15.2001 8.83334V10C15.2001 10.5 15.52 10.8333 16 10.8333H19.2C19.68 10.8333 20 10.5 20 10V8.83334C22.4 9.83334 24 12.25 24 15C24 17.75 22.4 20.1667 20 21.1667Z" fill="#EAEAEA"/>
<path d="M19.3599 26.8333C19.1999 26.75 18.8799 26.8333 18.7199 27C18.4799 27.1667 18.3999 27.4167 18.3999 27.6667V29.1667H16.7999V27.8334C16.7999 27.5834 16.6399 27.3334 16.4799 27.1667C16.3199 27 16.0799 26.9167 15.8399 27C12.1599 27.8333 9.59991 31.1667 9.59991 35.0833C9.59991 39 12.1599 42.3333 15.8399 43.1666C16.0799 43.2499 16.3199 43.1666 16.4799 42.9999C16.7199 42.8332 16.7999 42.5832 16.7999 42.3332V40.8332H18.3999V42.3332C18.3999 42.5832 18.2399 42.9999 19.3599 42.9999C23.0399 42.1666 25.5999 38.8332 25.5999 34.9166C25.5999 31 23.04 27.6667 19.3599 26.8333ZM20 41.1667V40C20 39.5 19.68 39.1667 19.2 39.1667H16C15.52 39.1667 15.2001 39.5 15.2001 40V41.1667C12.8001 40.1667 11.2 37.75 11.2 35C11.2 32.25 12.8001 29.8333 15.2001 28.8333V30C15.2001 30.5 15.52 30.8333 16 30.8333H19.2C19.68 30.8333 20 30.5 20 30V28.8333C22.4 29.8333 24 32.25 24 35C24 37.75 22.4 40.1667 20 41.1667Z" fill="#EAEAEA"/>
</svg>
