<svg width="50" height="40" viewBox="0 0 50 40" fill="none" xmlns="http://www.w3.org/2000/svg">
<path d="M21.7742 22.4193C20.4403 22.4193 19.3549 23.5048 19.3549 24.8387C19.3549 26.1725 20.4403 27.258 21.7742 27.258C23.1081 27.258 24.1936 26.1725 24.1936 24.8387C24.1936 23.5048 23.1081 22.4193 21.7742 22.4193ZM21.7742 25.6451C21.3299 25.6451 20.9678 25.2838 20.9678 24.8387C20.9678 24.3935 21.3299 24.0322 21.7742 24.0322C22.2186 24.0322 22.5807 24.3935 22.5807 24.8387C22.5807 25.2838 22.2186 25.6451 21.7742 25.6451Z" fill="#EAEAEA"/>
<path d="M25 35.3226H26.6129V31.2903H29.8387V29.6774H26.6129V27.258H31.4516V25.6451H25V35.3226Z" fill="#EAEAEA"/>
<path d="M41.7315 12.0459C40.6218 5.5024 34.925 0.645142 28.2258 0.645142C22.1613 0.645142 16.875 4.59998 15.1258 10.35C12.4315 10.1153 9.93387 11.3847 8.48226 13.5572C3.77016 13.7613 0 17.658 0 22.4193C0 27.3105 3.97984 31.2903 8.87097 31.2903H14.8089C15.9056 35.9064 20.0524 39.3548 25 39.3548C29.9476 39.3548 34.0944 35.9064 35.1911 31.2903H40.3226C45.6589 31.2903 50 26.9492 50 21.6129C50 16.8177 46.4177 12.7347 41.7315 12.0459ZM25 37.7419C20.1089 37.7419 16.129 33.7621 16.129 28.8709C16.129 23.9798 20.1089 20 25 20C29.8911 20 33.871 23.9798 33.871 28.8709C33.871 33.7621 29.8911 37.7419 25 37.7419ZM25 18.3871C19.2194 18.3871 14.5161 23.0903 14.5161 28.8709C14.5161 29.1435 14.5363 29.4105 14.5573 29.6774H8.87097C4.86935 29.6774 1.6129 26.4218 1.6129 22.4193C1.6129 18.4169 4.86936 15.1613 8.83952 15.1605L9.39758 15.1645L9.63065 14.7621C10.6395 13.0185 12.5113 11.9355 14.5161 11.9355C14.854 11.9355 15.2073 11.9701 15.5661 12.0371L16.3145 12.1782L16.4984 11.4387C17.8387 6.03385 22.6613 2.25804 28.2258 2.25804C34.325 2.25804 39.4831 6.82256 40.2226 12.875L40.279 13.3338C40.3065 13.6709 40.3226 14.0105 40.3226 14.3548C40.3226 18.5734 38.1435 22.4459 34.5871 24.6451C32.9581 20.9645 29.2774 18.3871 25 18.3871ZM40.3226 29.6774H35.4427C35.4637 29.4105 35.4839 29.1435 35.4839 28.8709C35.4839 27.9451 35.3516 27.0516 35.125 26.1951C39.3363 23.7395 41.9355 19.2564 41.9355 14.3548C41.9355 14.1403 41.9177 13.9314 41.9081 13.7201C45.6081 14.4645 48.3871 17.7589 48.3871 21.6129C48.3871 26.0597 44.7694 29.6774 40.3226 29.6774Z" fill="#EAEAEA"/>
</svg>
